# xmcd
#
# Track frame offsets:
#	150
#	14452
#	28177
#	42577
#	52702
#	67325
#	82100
#	93255
#	107254
#	121579
#	133654
#	145204
#	163008
#	176390
#	187978
#	208491
#	221391
#	233729
#	246592
#	261442
#
# Disc length: 3648 seconds
#
# Revision: 0
# Processed by: cddbd v1.5.2PL0 Copyright (c) Steve Scherf et al.
# Submitted via: EasyCDDAExtractor 12.0.1.1
#
DISCID=220e3e14
DTITLE=JARNO SARJANEN - KESKIKALJA-COWBOY - KOOTUT LEVYTYKSET OSA1
DYEAR=2008
DGENRE=SUOMI
TTITLE0=Tallirenki
TTITLE1=On Kotini Maantie
TTITLE2=Arjesta pois
TTITLE3=Heidi Hei
TTITLE4=On Mukava Näin
TTITLE5=Kylläistyin Liitutauluun
TTITLE6=Maanantaiaamu
TTITLE7=Kaikki Muuttuu
TTITLE8=Mä Löydän Sen
TTITLE9=Onnen Etsijä
TTITLE10=Kotikaipuu
TTITLE11=Kaivaten
TTITLE12=Valot Nään
TTITLE13=Teen Mitä Teen
TTITLE14=Anna
TTITLE15=Johnny. Mua Muistathan
TTITLE16=East Virginia
TTITLE17=Hän On Nainen
TTITLE18=Kesäkatu
TTITLE19=Vähän Ennen Kyyneleitä
EXTD=
EXTT0=
EXTT1=
EXTT2=
EXTT3=
EXTT4=
EXTT5=
EXTT6=
EXTT7=
EXTT8=
EXTT9=
EXTT10=
EXTT11=
EXTT12=
EXTT13=
EXTT14=
EXTT15=
EXTT16=
EXTT17=
EXTT18=
EXTT19=
PLAYORDER=
